<svg id="Ebene_1" data-name="Ebene 1" xmlns="http://www.w3.org/2000/svg" viewBox="0 0 1929.62 1855.2"><defs><style>.cls-1,.cls-2,.cls-3,.cls-4,.cls-5{fill:#ea004e;}.cls-2{opacity:0.2;}.cls-3{opacity:0.3;}.cls-4{opacity:0.6;}.cls-5{opacity:0.9;}</style></defs><path d="M243.93,1873.46C158.1,1013.32,94.53,393.64,72.25,268.05c-3.42-19.31-16.14-84.87,20.11-133C121.65,96.15,178.43,74.54,213,80.91c101.4,18.68,114.25,297,168.58,966.65,38.44,473.77,65.44,746.54-65,812C289.38,1873.22,262.11,1874.42,243.93,1873.46Z" transform="translate(-67.29 -41)"/><path d="M1055.92,1888.93c-293.58,49.24-642.53-158.62-699.08-416-2.79-12.67-27.93-127.09,17-154.66,57.47-35.25,162.64,112.59,377.38,241.28,276.77,165.86,505.63,162.09,504.2,228.9C1254.41,1836.63,1134.34,1875.78,1055.92,1888.93Z" transform="translate(-67.29 -41)"/><path d="M731.12,73.17c75.19-34.26,204.32-53.75,269.12,7.74C1259,326.45,624.85,1335.48,466.65,1497.63c-14,14.37-53.57,54.9-83.65,44.37-34.09-11.93-36.62-82.62-41.63-222.23-.85-23.58-1.72-69.74,16.29-123.75,1.62-4.85,3-8.5,3.82-10.81C488.14,839.34,424.34,213,731.12,73.17Z" transform="translate(-67.29 -41)"/><path class="cls-1" d="M791.44,1180.57c-63.78,8.92-108,310.61-29.38,351.09,27,13.91,71.49-1.56,74.23-17,2.67-15-35.92-18.76-55.67-47.94-50.51-74.61,86.18-220.63,38.66-273.76C818.68,1192.27,806.05,1178.53,791.44,1180.57Z" transform="translate(-67.29 -41)"/><path class="cls-1" d="M893.52,1477.52c11.26-15.08,63.82,26.78,95.89,6.19,23.51-15.1,32.82-61.72,12.38-85.06-21.49-24.54-68-14.48-92.8,4.64-48.19,37.17-46.4,133.59-4.64,159.3,34.83,21.44,92.33-9.48,91.25-17-1-6.79-49.35,6-82-23.2C898.39,1508.73,887,1486.27,893.52,1477.52Z" transform="translate(-67.29 -41)"/><path class="cls-1" d="M1077.57,1381.63c-20.45.15-45.44,143.33-24.75,151.57,9.78,3.9,29.68-22.36,38.67-41.76C1114.71,1441.34,1090.82,1381.54,1077.57,1381.63Z" transform="translate(-67.29 -41)"/><path class="cls-1" d="M1068.29,1313.58c-10.44,9.3-4.14,28.39,3.09,30.93,9.35,3.29,29.16-17.92,24.75-27.84C1093.09,1309.83,1077.29,1305.57,1068.29,1313.58Z" transform="translate(-67.29 -41)"/><path class="cls-1" d="M1173.46,1431.13c-60.14,33.37-51.42,146.08-17,165.49,17.22,9.71,47.23-.37,52.59-15.47,6.43-18.15-26.65-32.53-27.84-65-1.15-30.92,27.28-62.39,40.21-58.77,22.5,6.3-4.09,118.36,24.74,128.37,14.7,5.1,35.85-19,44.86-34,17.15-28.53,17.2-68.76-4.64-97.43C1258.76,1418.08,1206,1413.1,1173.46,1431.13Z" transform="translate(-67.29 -41)"/><path class="cls-1" d="M1394.63,1638.38c-34.66,2-66.78-38.65-63.41-77.34,3.15-36.13,37.26-70.57,71.15-65,34.68,5.76,52.91,50.81,46.39,85.07C1443.87,1606.87,1423.09,1636.73,1394.63,1638.38Z" transform="translate(-67.29 -41)"/><path class="cls-1" d="M1532.42,1696.87c-26.37,1.32-63.39-35.65-59-76,4.68-43.25,54.7-71.08,81-61.62,29.81,10.74,30.85,70.06,37.95,69.22,12.68-1.49-16.9-187.51,30.49-205.2,11.08-4.14,24.3,1.7,31.83,7.94,60.77,50.34-53.33,287.72-66.59,283.89-5.23-1.51,4.81-40.74-7.71-45.88C1568.86,1664.44,1555.84,1695.71,1532.42,1696.87Z" transform="translate(-67.29 -41)"/><rect class="cls-2" x="776.65" y="1093.07" width="1081.71" height="192.18" rx="25.15" transform="matrix(0.97, 0.25, -0.25, 0.97, 271.45, -332.37)"/><rect class="cls-3" x="823.01" y="1052.95" width="1081.71" height="192.18" rx="25.15" transform="translate(262.9 -345.21) rotate(14.46)"/><rect class="cls-4" x="868.41" y="1013.25" width="1081.71" height="192.18" rx="25.15" transform="matrix(0.97, 0.25, -0.25, 0.97, 254.43, -357.81)"/><rect class="cls-5" x="913.82" y="973.55" width="1081.71" height="192.18" rx="25.15" transform="translate(245.95 -370.41) rotate(14.46)"/></svg>